<svg width="320" height="22" viewBox="0 0 320 22" fill="none" xmlns="http://www.w3.org/2000/svg">
<g clip-path="url(#clip0_28_231)">
<path d="M8 3C3.58888 3 0 6.58888 0 11C0 15.4111 3.58888 19 8 19C12.4111 19 16 15.4111 16 11C16 6.58888 12.4111 3 8 3ZM8 18C4.14013 18 1 14.8599 1 11C1 7.14013 4.14013 4 8 4C11.8599 4 15 7.14013 15 11C15 14.8599 11.8599 18 8 18Z" fill="black"/>
<path d="M8.5 6.00049H7.5V11.2075L10.6465 14.354L11.3535 13.647L8.5 10.7934V6.00049Z" fill="black"/>
</g>
<path d="M29.474 16V13.9H24.504V12.99L29.264 6.2H30.636V12.864H32.092V13.9H30.636V16H29.474ZM25.806 12.864H29.53V7.502L25.806 12.864ZM33.8486 16.07C33.6152 16.07 33.4192 15.9953 33.2606 15.846C33.1112 15.6873 33.0366 15.496 33.0366 15.272C33.0366 15.048 33.1112 14.8613 33.2606 14.712C33.4192 14.5533 33.6152 14.474 33.8486 14.474C34.0726 14.474 34.2592 14.5533 34.4086 14.712C34.5672 14.8613 34.6466 15.048 34.6466 15.272C34.6466 15.496 34.5672 15.6873 34.4086 15.846C34.2592 15.9953 34.0726 16.07 33.8486 16.07ZM39.5084 16.168C38.6404 16.168 37.8891 15.958 37.2544 15.538C36.6291 15.1087 36.1484 14.516 35.8124 13.76C35.4764 12.9947 35.3084 12.108 35.3084 11.1C35.3084 10.092 35.4764 9.21 35.8124 8.454C36.1484 7.68867 36.6291 7.096 37.2544 6.676C37.8891 6.24667 38.6404 6.032 39.5084 6.032C40.3764 6.032 41.1231 6.24667 41.7484 6.676C42.3737 7.096 42.8544 7.68867 43.1904 8.454C43.5264 9.21 43.6944 10.092 43.6944 11.1C43.6944 12.108 43.5264 12.9947 43.1904 13.76C42.8544 14.516 42.3737 15.1087 41.7484 15.538C41.1231 15.958 40.3764 16.168 39.5084 16.168ZM39.5084 15.132C40.0777 15.132 40.5864 14.9733 41.0344 14.656C41.4917 14.3293 41.8464 13.8673 42.0984 13.27C42.3597 12.6633 42.4904 11.94 42.4904 11.1C42.4904 10.26 42.3597 9.54133 42.0984 8.944C41.8464 8.34667 41.4917 7.88933 41.0344 7.572C40.5864 7.24533 40.0777 7.082 39.5084 7.082C38.9297 7.082 38.4164 7.24533 37.9684 7.572C37.5204 7.88933 37.1657 8.34667 36.9044 8.944C36.6431 9.54133 36.5124 10.26 36.5124 11.1C36.5124 11.94 36.6431 12.6633 36.9044 13.27C37.1657 13.8673 37.5204 14.3293 37.9684 14.656C38.4164 14.9733 38.9297 15.132 39.5084 15.132ZM49.2154 16.168C48.3474 16.168 47.5961 15.958 46.9614 15.538C46.3361 15.1087 45.8554 14.516 45.5194 13.76C45.1834 12.9947 45.0154 12.108 45.0154 11.1C45.0154 10.092 45.1834 9.21 45.5194 8.454C45.8554 7.68867 46.3361 7.096 46.9614 6.676C47.5961 6.24667 48.3474 6.032 49.2154 6.032C50.0834 6.032 50.8301 6.24667 51.4554 6.676C52.0808 7.096 52.5614 7.68867 52.8974 8.454C53.2334 9.21 53.4014 10.092 53.4014 11.1C53.4014 12.108 53.2334 12.9947 52.8974 13.76C52.5614 14.516 52.0808 15.1087 51.4554 15.538C50.8301 15.958 50.0834 16.168 49.2154 16.168ZM49.2154 15.132C49.7848 15.132 50.2934 14.9733 50.7414 14.656C51.1988 14.3293 51.5534 13.8673 51.8054 13.27C52.0668 12.6633 52.1974 11.94 52.1974 11.1C52.1974 10.26 52.0668 9.54133 51.8054 8.944C51.5534 8.34667 51.1988 7.88933 50.7414 7.572C50.2934 7.24533 49.7848 7.082 49.2154 7.082C48.6368 7.082 48.1234 7.24533 47.6754 7.572C47.2274 7.88933 46.8728 8.34667 46.6114 8.944C46.3501 9.54133 46.2194 10.26 46.2194 11.1C46.2194 11.94 46.3501 12.6633 46.6114 13.27C46.8728 13.8673 47.2274 14.3293 47.6754 14.656C48.1234 14.9733 48.6368 15.132 49.2154 15.132ZM58.7355 19.08V9.056H59.7995L59.9115 10.204C60.1355 9.868 60.4529 9.56467 60.8635 9.294C61.2835 9.02333 61.8155 8.888 62.4595 8.888C63.1502 8.888 63.7522 9.04667 64.2655 9.364C64.7789 9.68133 65.1755 10.1153 65.4555 10.666C65.7449 11.2167 65.8895 11.842 65.8895 12.542C65.8895 13.242 65.7449 13.8673 65.4555 14.418C65.1755 14.9593 64.7742 15.3887 64.2515 15.706C63.7382 16.014 63.1362 16.168 62.4455 16.168C61.8762 16.168 61.3675 16.0513 60.9195 15.818C60.4809 15.5847 60.1449 15.258 59.9115 14.838V19.08H58.7355ZM62.3195 15.146C62.7862 15.146 63.1969 15.0387 63.5515 14.824C63.9062 14.6 64.1862 14.292 64.3915 13.9C64.5969 13.508 64.6995 13.0507 64.6995 12.528C64.6995 12.0053 64.5969 11.548 64.3915 11.156C64.1862 10.764 63.9062 10.4607 63.5515 10.246C63.1969 10.022 62.7862 9.91 62.3195 9.91C61.8529 9.91 61.4422 10.022 61.0875 10.246C60.7329 10.4607 60.4529 10.764 60.2475 11.156C60.0422 11.548 59.9395 12.0053 59.9395 12.528C59.9395 13.0507 60.0422 13.508 60.2475 13.9C60.4529 14.292 60.7329 14.6 61.0875 14.824C61.4422 15.0387 61.8529 15.146 62.3195 15.146ZM67.5265 16V9.056H68.5905L68.6745 10.064C68.8985 9.69067 69.1972 9.40133 69.5705 9.196C69.9439 8.99067 70.3639 8.888 70.8305 8.888C71.3812 8.888 71.8525 9 72.2445 9.224C72.6459 9.448 72.9539 9.78867 73.1685 10.246C73.4112 9.826 73.7425 9.49467 74.1625 9.252C74.5919 9.00933 75.0539 8.888 75.5485 8.888C76.3792 8.888 77.0419 9.14 77.5365 9.644C78.0312 10.1387 78.2785 10.904 78.2785 11.94V16H77.1165V12.066C77.1165 11.3473 76.9719 10.806 76.6825 10.442C76.3932 10.078 75.9779 9.896 75.4365 9.896C74.8765 9.896 74.4099 10.1153 74.0365 10.554C73.6725 10.9833 73.4905 11.5993 73.4905 12.402V16H72.3145V12.066C72.3145 11.3473 72.1699 10.806 71.8805 10.442C71.5912 10.078 71.1759 9.896 70.6345 9.896C70.0839 9.896 69.6219 10.1153 69.2485 10.554C68.8845 10.9833 68.7025 11.5993 68.7025 12.402V16H67.5265ZM83.6151 12.43V11.436H89.1591V12.43H83.6151ZM97.9419 16.168C97.2979 16.168 96.7192 16.0513 96.2059 15.818C95.6925 15.5753 95.2865 15.244 94.9879 14.824C94.6985 14.3947 94.5539 13.9 94.5539 13.34C94.5539 12.7427 94.7265 12.206 95.0719 11.73C95.4265 11.254 95.8932 10.9367 96.4719 10.778C95.9399 10.6007 95.5292 10.316 95.2399 9.924C94.9505 9.532 94.8059 9.10267 94.8059 8.636C94.8059 8.16 94.9319 7.726 95.1839 7.334C95.4359 6.93267 95.7952 6.61533 96.2619 6.382C96.7285 6.14867 97.2885 6.032 97.9419 6.032C98.5952 6.032 99.1552 6.14867 99.6219 6.382C100.089 6.61533 100.448 6.93267 100.7 7.334C100.952 7.726 101.078 8.16 101.078 8.636C101.078 9.09333 100.933 9.52267 100.644 9.924C100.355 10.316 99.9439 10.6007 99.4119 10.778C99.9905 10.9367 100.453 11.254 100.798 11.73C101.153 12.206 101.33 12.7427 101.33 13.34C101.33 13.9 101.181 14.3947 100.882 14.824C100.593 15.244 100.191 15.5753 99.6779 15.818C99.1645 16.0513 98.5859 16.168 97.9419 16.168ZM97.9419 10.358C98.5392 10.358 99.0105 10.2087 99.3559 9.91C99.7105 9.602 99.8879 9.20067 99.8879 8.706C99.8879 8.15533 99.7152 7.74 99.3699 7.46C99.0245 7.18 98.5485 7.04 97.9419 7.04C97.3352 7.04 96.8592 7.18 96.5139 7.46C96.1779 7.74 96.0099 8.15533 96.0099 8.706C96.0099 9.20067 96.1825 9.602 96.5279 9.91C96.8732 10.2087 97.3445 10.358 97.9419 10.358ZM97.9419 15.132C98.6792 15.132 99.2299 14.964 99.5939 14.628C99.9672 14.2827 100.154 13.83 100.154 13.27C100.154 12.6353 99.9532 12.1547 99.5519 11.828C99.1505 11.5013 98.6139 11.338 97.9419 11.338C97.2699 11.338 96.7332 11.5013 96.3319 11.828C95.9305 12.1547 95.7299 12.6353 95.7299 13.27C95.7299 13.83 95.9119 14.2827 96.2759 14.628C96.6492 14.964 97.2045 15.132 97.9419 15.132ZM103.589 16.07C103.355 16.07 103.159 15.9953 103.001 15.846C102.851 15.6873 102.777 15.496 102.777 15.272C102.777 15.048 102.851 14.8613 103.001 14.712C103.159 14.5533 103.355 14.474 103.589 14.474C103.813 14.474 103.999 14.5533 104.149 14.712C104.307 14.8613 104.387 15.048 104.387 15.272C104.387 15.496 104.307 15.6873 104.149 15.846C103.999 15.9953 103.813 16.07 103.589 16.07ZM109.249 16.168C108.381 16.168 107.629 15.958 106.995 15.538C106.369 15.1087 105.889 14.516 105.553 13.76C105.217 12.9947 105.049 12.108 105.049 11.1C105.049 10.092 105.217 9.21 105.553 8.454C105.889 7.68867 106.369 7.096 106.995 6.676C107.629 6.24667 108.381 6.032 109.249 6.032C110.117 6.032 110.863 6.24667 111.489 6.676C112.114 7.096 112.595 7.68867 112.931 8.454C113.267 9.21 113.435 10.092 113.435 11.1C113.435 12.108 113.267 12.9947 112.931 13.76C112.595 14.516 112.114 15.1087 111.489 15.538C110.863 15.958 110.117 16.168 109.249 16.168ZM109.249 15.132C109.818 15.132 110.327 14.9733 110.775 14.656C111.232 14.3293 111.587 13.8673 111.839 13.27C112.1 12.6633 112.231 11.94 112.231 11.1C112.231 10.26 112.1 9.54133 111.839 8.944C111.587 8.34667 111.232 7.88933 110.775 7.572C110.327 7.24533 109.818 7.082 109.249 7.082C108.67 7.082 108.157 7.24533 107.709 7.572C107.261 7.88933 106.906 8.34667 106.645 8.944C106.383 9.54133 106.253 10.26 106.253 11.1C106.253 11.94 106.383 12.6633 106.645 13.27C106.906 13.8673 107.261 14.3293 107.709 14.656C108.157 14.9733 108.67 15.132 109.249 15.132ZM118.956 16.168C118.088 16.168 117.336 15.958 116.702 15.538C116.076 15.1087 115.596 14.516 115.26 13.76C114.924 12.9947 114.756 12.108 114.756 11.1C114.756 10.092 114.924 9.21 115.26 8.454C115.596 7.68867 116.076 7.096 116.702 6.676C117.336 6.24667 118.088 6.032 118.956 6.032C119.824 6.032 120.57 6.24667 121.196 6.676C121.821 7.096 122.302 7.68867 122.638 8.454C122.974 9.21 123.142 10.092 123.142 11.1C123.142 12.108 122.974 12.9947 122.638 13.76C122.302 14.516 121.821 15.1087 121.196 15.538C120.57 15.958 119.824 16.168 118.956 16.168ZM118.956 15.132C119.525 15.132 120.034 14.9733 120.482 14.656C120.939 14.3293 121.294 13.8673 121.546 13.27C121.807 12.6633 121.938 11.94 121.938 11.1C121.938 10.26 121.807 9.54133 121.546 8.944C121.294 8.34667 120.939 7.88933 120.482 7.572C120.034 7.24533 119.525 7.082 118.956 7.082C118.377 7.082 117.864 7.24533 117.416 7.572C116.968 7.88933 116.613 8.34667 116.352 8.944C116.09 9.54133 115.96 10.26 115.96 11.1C115.96 11.94 116.09 12.6633 116.352 13.27C116.613 13.8673 116.968 14.3293 117.416 14.656C117.864 14.9733 118.377 15.132 118.956 15.132ZM128.476 19.08V9.056H129.54L129.652 10.204C129.876 9.868 130.193 9.56467 130.604 9.294C131.024 9.02333 131.556 8.888 132.2 8.888C132.89 8.888 133.492 9.04667 134.006 9.364C134.519 9.68133 134.916 10.1153 135.196 10.666C135.485 11.2167 135.63 11.842 135.63 12.542C135.63 13.242 135.485 13.8673 135.196 14.418C134.916 14.9593 134.514 15.3887 133.992 15.706C133.478 16.014 132.876 16.168 132.186 16.168C131.616 16.168 131.108 16.0513 130.66 15.818C130.221 15.5847 129.885 15.258 129.652 14.838V19.08H128.476ZM132.06 15.146C132.526 15.146 132.937 15.0387 133.292 14.824C133.646 14.6 133.926 14.292 134.132 13.9C134.337 13.508 134.44 13.0507 134.44 12.528C134.44 12.0053 134.337 11.548 134.132 11.156C133.926 10.764 133.646 10.4607 133.292 10.246C132.937 10.022 132.526 9.91 132.06 9.91C131.593 9.91 131.182 10.022 130.828 10.246C130.473 10.4607 130.193 10.764 129.988 11.156C129.782 11.548 129.68 12.0053 129.68 12.528C129.68 13.0507 129.782 13.508 129.988 13.9C130.193 14.292 130.473 14.6 130.828 14.824C131.182 15.0387 131.593 15.146 132.06 15.146ZM137.267 16V9.056H138.331L138.415 10.064C138.639 9.69067 138.937 9.40133 139.311 9.196C139.684 8.99067 140.104 8.888 140.571 8.888C141.121 8.888 141.593 9 141.985 9.224C142.386 9.448 142.694 9.78867 142.909 10.246C143.151 9.826 143.483 9.49467 143.903 9.252C144.332 9.00933 144.794 8.888 145.289 8.888C146.119 8.888 146.782 9.14 147.277 9.644C147.771 10.1387 148.019 10.904 148.019 11.94V16H146.857V12.066C146.857 11.3473 146.712 10.806 146.423 10.442C146.133 10.078 145.718 9.896 145.177 9.896C144.617 9.896 144.15 10.1153 143.777 10.554C143.413 10.9833 143.231 11.5993 143.231 12.402V16H142.055V12.066C142.055 11.3473 141.91 10.806 141.621 10.442C141.331 10.078 140.916 9.896 140.375 9.896C139.824 9.896 139.362 10.1153 138.989 10.554C138.625 10.9833 138.443 11.5993 138.443 12.402V16H137.267Z" fill="#555555"/>
<path d="M186 3C182.898 3 180.375 5.52338 180.375 8.625C180.375 9.67294 180.665 10.6956 181.215 11.5829L185.68 18.7784C185.765 18.9163 185.916 19 186.078 19C186.079 19 186.081 19 186.082 19C186.245 18.9987 186.396 18.9124 186.48 18.7721L190.832 11.5069C191.351 10.6384 191.625 9.64184 191.625 8.625C191.625 5.52338 189.102 3 186 3ZM190.027 11.0256L186.071 17.6308L182.011 11.0889C181.554 10.3504 181.306 9.49844 181.306 8.625C181.306 6.04031 183.415 3.93125 186 3.93125C188.585 3.93125 190.691 6.04031 190.691 8.625C190.691 9.47253 190.459 10.3027 190.027 11.0256Z" fill="black"/>
<path d="M186 5.8125C184.449 5.8125 183.188 7.07419 183.188 8.625C183.188 10.1659 184.429 11.4375 186 11.4375C187.591 11.4375 188.812 10.149 188.812 8.625C188.812 7.07419 187.551 5.8125 186 5.8125ZM186 10.5062C184.961 10.5062 184.119 9.66147 184.119 8.625C184.119 7.59113 184.966 6.74375 186 6.74375C187.034 6.74375 187.878 7.59113 187.878 8.625C187.878 9.64634 187.056 10.5062 186 10.5062Z" fill="black"/>
<path d="M203.036 16V6.2H206.046C207.773 6.2 209.042 6.63867 209.854 7.516C210.675 8.39333 211.086 9.59733 211.086 11.128C211.086 12.6307 210.675 13.8207 209.854 14.698C209.042 15.566 207.773 16 206.046 16H203.036ZM204.212 15.02H206.018C206.97 15.02 207.726 14.866 208.286 14.558C208.855 14.2407 209.261 13.7927 209.504 13.214C209.747 12.626 209.868 11.9307 209.868 11.128C209.868 10.3067 209.747 9.602 209.504 9.014C209.261 8.426 208.855 7.97333 208.286 7.656C207.726 7.33867 206.97 7.18 206.018 7.18H204.212V15.02ZM212.714 16V5.92H213.89V10.246C214.123 9.81667 214.455 9.48533 214.884 9.252C215.313 9.00933 215.78 8.888 216.284 8.888C217.087 8.888 217.731 9.14 218.216 9.644C218.701 10.1387 218.944 10.904 218.944 11.94V16H217.782V12.066C217.782 10.6193 217.199 9.896 216.032 9.896C215.425 9.896 214.917 10.1153 214.506 10.554C214.095 10.9833 213.89 11.5993 213.89 12.402V16H212.714ZM223.036 16.168C222.457 16.168 221.976 16.07 221.594 15.874C221.211 15.678 220.926 15.4167 220.74 15.09C220.553 14.7633 220.46 14.4087 220.46 14.026C220.46 13.3167 220.73 12.7707 221.272 12.388C221.813 12.0053 222.55 11.814 223.484 11.814H225.36V11.73C225.36 11.1233 225.201 10.666 224.884 10.358C224.566 10.0407 224.142 9.882 223.61 9.882C223.152 9.882 222.756 9.99867 222.42 10.232C222.093 10.456 221.888 10.7873 221.804 11.226H220.6C220.646 10.722 220.814 10.2973 221.104 9.952C221.402 9.60667 221.771 9.34533 222.21 9.168C222.648 8.98133 223.115 8.888 223.61 8.888C224.58 8.888 225.308 9.14933 225.794 9.672C226.288 10.1853 226.536 10.8713 226.536 11.73V16H225.486L225.416 14.754C225.22 15.146 224.93 15.482 224.548 15.762C224.174 16.0327 223.67 16.168 223.036 16.168ZM223.218 15.174C223.666 15.174 224.048 15.0573 224.366 14.824C224.692 14.5907 224.94 14.2873 225.108 13.914C225.276 13.5407 225.36 13.1487 225.36 12.738V12.724H223.582C222.891 12.724 222.401 12.8453 222.112 13.088C221.832 13.3213 221.692 13.6153 221.692 13.97C221.692 14.334 221.822 14.628 222.084 14.852C222.354 15.0667 222.732 15.174 223.218 15.174ZM228.3 16V5.92H229.476V11.982L232.318 9.056H233.76L230.68 12.192L234.152 16H232.654L229.476 12.402V16H228.3ZM237.61 16.168C237.031 16.168 236.551 16.07 236.168 15.874C235.785 15.678 235.501 15.4167 235.314 15.09C235.127 14.7633 235.034 14.4087 235.034 14.026C235.034 13.3167 235.305 12.7707 235.846 12.388C236.387 12.0053 237.125 11.814 238.058 11.814H239.934V11.73C239.934 11.1233 239.775 10.666 239.458 10.358C239.141 10.0407 238.716 9.882 238.184 9.882C237.727 9.882 237.33 9.99867 236.994 10.232C236.667 10.456 236.462 10.7873 236.378 11.226H235.174C235.221 10.722 235.389 10.2973 235.678 9.952C235.977 9.60667 236.345 9.34533 236.784 9.168C237.223 8.98133 237.689 8.888 238.184 8.888C239.155 8.888 239.883 9.14933 240.368 9.672C240.863 10.1853 241.11 10.8713 241.11 11.73V16H240.06L239.99 14.754C239.794 15.146 239.505 15.482 239.122 15.762C238.749 16.0327 238.245 16.168 237.61 16.168ZM237.792 15.174C238.24 15.174 238.623 15.0573 238.94 14.824C239.267 14.5907 239.514 14.2873 239.682 13.914C239.85 13.5407 239.934 13.1487 239.934 12.738V12.724H238.156C237.465 12.724 236.975 12.8453 236.686 13.088C236.406 13.3213 236.266 13.6153 236.266 13.97C236.266 14.334 236.397 14.628 236.658 14.852C236.929 15.0667 237.307 15.174 237.792 15.174ZM246.649 16V6.2H250.093C250.784 6.2 251.353 6.312 251.801 6.536C252.259 6.75067 252.599 7.04933 252.823 7.432C253.047 7.80533 253.159 8.22533 253.159 8.692C253.159 9.32667 252.987 9.826 252.641 10.19C252.305 10.554 251.899 10.806 251.423 10.946C251.787 11.0113 252.119 11.156 252.417 11.38C252.716 11.604 252.949 11.884 253.117 12.22C253.295 12.556 253.383 12.9247 253.383 13.326C253.383 13.8207 253.262 14.2733 253.019 14.684C252.777 15.0853 252.417 15.4073 251.941 15.65C251.465 15.8833 250.887 16 250.205 16H246.649ZM247.825 10.484H250.009C250.635 10.484 251.115 10.3393 251.451 10.05C251.787 9.75133 251.955 9.34067 251.955 8.818C251.955 8.32333 251.787 7.92667 251.451 7.628C251.125 7.32933 250.63 7.18 249.967 7.18H247.825V10.484ZM247.825 15.02H250.079C250.751 15.02 251.269 14.866 251.633 14.558C251.997 14.2407 252.179 13.802 252.179 13.242C252.179 12.6913 251.988 12.2527 251.605 11.926C251.223 11.59 250.705 11.422 250.051 11.422H247.825V15.02ZM257.311 16.168C256.732 16.168 256.252 16.07 255.869 15.874C255.486 15.678 255.202 15.4167 255.015 15.09C254.828 14.7633 254.735 14.4087 254.735 14.026C254.735 13.3167 255.006 12.7707 255.547 12.388C256.088 12.0053 256.826 11.814 257.759 11.814H259.635V11.73C259.635 11.1233 259.476 10.666 259.159 10.358C258.842 10.0407 258.417 9.882 257.885 9.882C257.428 9.882 257.031 9.99867 256.695 10.232C256.368 10.456 256.163 10.7873 256.079 11.226H254.875C254.922 10.722 255.09 10.2973 255.379 9.952C255.678 9.60667 256.046 9.34533 256.485 9.168C256.924 8.98133 257.39 8.888 257.885 8.888C258.856 8.888 259.584 9.14933 260.069 9.672C260.564 10.1853 260.811 10.8713 260.811 11.73V16H259.761L259.691 14.754C259.495 15.146 259.206 15.482 258.823 15.762C258.45 16.0327 257.946 16.168 257.311 16.168ZM257.493 15.174C257.941 15.174 258.324 15.0573 258.641 14.824C258.968 14.5907 259.215 14.2873 259.383 13.914C259.551 13.5407 259.635 13.1487 259.635 12.738V12.724H257.857C257.166 12.724 256.676 12.8453 256.387 13.088C256.107 13.3213 255.967 13.6153 255.967 13.97C255.967 14.334 256.098 14.628 256.359 14.852C256.63 15.0667 257.008 15.174 257.493 15.174ZM262.575 16V9.056H263.639L263.709 10.302C263.933 9.86333 264.255 9.518 264.675 9.266C265.095 9.014 265.571 8.888 266.103 8.888C266.925 8.888 267.578 9.14 268.063 9.644C268.558 10.1387 268.805 10.904 268.805 11.94V16H267.629V12.066C267.629 10.6193 267.032 9.896 265.837 9.896C265.24 9.896 264.741 10.1153 264.339 10.554C263.947 10.9833 263.751 11.5993 263.751 12.402V16H262.575ZM273.331 13.816C272.939 13.816 272.58 13.7647 272.253 13.662L271.553 14.32C271.656 14.3947 271.782 14.46 271.931 14.516C272.09 14.5627 272.314 14.6093 272.603 14.656C272.892 14.6933 273.298 14.7353 273.821 14.782C274.754 14.8473 275.422 15.062 275.823 15.426C276.224 15.79 276.425 16.266 276.425 16.854C276.425 17.2553 276.313 17.638 276.089 18.002C275.874 18.366 275.538 18.6647 275.081 18.898C274.633 19.1313 274.054 19.248 273.345 19.248C272.72 19.248 272.164 19.164 271.679 18.996C271.194 18.8373 270.816 18.59 270.545 18.254C270.274 17.9273 270.139 17.512 270.139 17.008C270.139 16.7467 270.209 16.462 270.349 16.154C270.489 15.8553 270.75 15.5707 271.133 15.3C270.928 15.216 270.75 15.1273 270.601 15.034C270.461 14.9313 270.33 14.8193 270.209 14.698V14.376L271.399 13.2C270.848 12.7333 270.573 12.1173 270.573 11.352C270.573 10.8947 270.68 10.4793 270.895 10.106C271.11 9.73267 271.422 9.43867 271.833 9.224C272.244 9 272.743 8.888 273.331 8.888C273.732 8.888 274.096 8.944 274.423 9.056H276.985V9.938L275.683 9.994C275.954 10.386 276.089 10.8387 276.089 11.352C276.089 11.8093 275.977 12.2247 275.753 12.598C275.538 12.9713 275.226 13.27 274.815 13.494C274.414 13.7087 273.919 13.816 273.331 13.816ZM273.331 12.85C273.826 12.85 274.218 12.724 274.507 12.472C274.806 12.2107 274.955 11.8373 274.955 11.352C274.955 10.876 274.806 10.512 274.507 10.26C274.218 9.99867 273.826 9.868 273.331 9.868C272.827 9.868 272.426 9.99867 272.127 10.26C271.838 10.512 271.693 10.876 271.693 11.352C271.693 11.8373 271.838 12.2107 272.127 12.472C272.426 12.724 272.827 12.85 273.331 12.85ZM271.287 16.896C271.287 17.3627 271.483 17.708 271.875 17.932C272.267 18.1653 272.757 18.282 273.345 18.282C273.924 18.282 274.386 18.156 274.731 17.904C275.086 17.652 275.263 17.316 275.263 16.896C275.263 16.5973 275.142 16.336 274.899 16.112C274.656 15.8973 274.208 15.7713 273.555 15.734C273.042 15.6967 272.598 15.65 272.225 15.594C271.842 15.7993 271.59 16.0187 271.469 16.252C271.348 16.4947 271.287 16.7093 271.287 16.896ZM278.312 16V5.92H279.488V16H278.312ZM283.725 16.168C283.147 16.168 282.666 16.07 282.283 15.874C281.901 15.678 281.616 15.4167 281.429 15.09C281.243 14.7633 281.149 14.4087 281.149 14.026C281.149 13.3167 281.42 12.7707 281.961 12.388C282.503 12.0053 283.24 11.814 284.173 11.814H286.049V11.73C286.049 11.1233 285.891 10.666 285.573 10.358C285.256 10.0407 284.831 9.882 284.299 9.882C283.842 9.882 283.445 9.99867 283.109 10.232C282.783 10.456 282.577 10.7873 282.493 11.226H281.289C281.336 10.722 281.504 10.2973 281.793 9.952C282.092 9.60667 282.461 9.34533 282.899 9.168C283.338 8.98133 283.805 8.888 284.299 8.888C285.27 8.888 285.998 9.14933 286.483 9.672C286.978 10.1853 287.225 10.8713 287.225 11.73V16H286.175L286.105 14.754C285.909 15.146 285.62 15.482 285.237 15.762C284.864 16.0327 284.36 16.168 283.725 16.168ZM283.907 15.174C284.355 15.174 284.738 15.0573 285.055 14.824C285.382 14.5907 285.629 14.2873 285.797 13.914C285.965 13.5407 286.049 13.1487 286.049 12.738V12.724H284.271C283.581 12.724 283.091 12.8453 282.801 13.088C282.521 13.3213 282.381 13.6153 282.381 13.97C282.381 14.334 282.512 14.628 282.773 14.852C283.044 15.0667 283.422 15.174 283.907 15.174ZM292.139 16.168C291.449 16.168 290.842 16.0093 290.319 15.692C289.806 15.3747 289.405 14.9407 289.115 14.39C288.835 13.8393 288.695 13.214 288.695 12.514C288.695 11.814 288.84 11.1933 289.129 10.652C289.419 10.1013 289.82 9.672 290.333 9.364C290.847 9.04667 291.453 8.888 292.153 8.888C292.723 8.888 293.227 9.00467 293.665 9.238C294.104 9.47133 294.445 9.798 294.687 10.218V5.92H295.863V16H294.799L294.687 14.852C294.463 15.188 294.141 15.4913 293.721 15.762C293.301 16.0327 292.774 16.168 292.139 16.168ZM292.265 15.146C292.732 15.146 293.143 15.0387 293.497 14.824C293.861 14.6 294.141 14.292 294.337 13.9C294.543 13.508 294.645 13.0507 294.645 12.528C294.645 12.0053 294.543 11.548 294.337 11.156C294.141 10.764 293.861 10.4607 293.497 10.246C293.143 10.022 292.732 9.91 292.265 9.91C291.808 9.91 291.397 10.022 291.033 10.246C290.679 10.4607 290.399 10.764 290.193 11.156C289.997 11.548 289.899 12.0053 289.899 12.528C289.899 13.0507 289.997 13.508 290.193 13.9C290.399 14.292 290.679 14.6 291.033 14.824C291.397 15.0387 291.808 15.146 292.265 15.146ZM300.902 16.168C300.24 16.168 299.652 16.0187 299.138 15.72C298.625 15.412 298.219 14.9873 297.92 14.446C297.631 13.9047 297.486 13.2653 297.486 12.528C297.486 11.8 297.631 11.1653 297.92 10.624C298.21 10.0733 298.611 9.64867 299.124 9.35C299.647 9.042 300.249 8.888 300.93 8.888C301.602 8.888 302.181 9.042 302.666 9.35C303.161 9.64867 303.539 10.0453 303.8 10.54C304.062 11.0347 304.192 11.5667 304.192 12.136C304.192 12.2387 304.188 12.3413 304.178 12.444C304.178 12.5467 304.178 12.6633 304.178 12.794H298.648C298.676 13.326 298.798 13.7693 299.012 14.124C299.236 14.4693 299.512 14.7307 299.838 14.908C300.174 15.0853 300.529 15.174 300.902 15.174C301.388 15.174 301.794 15.062 302.12 14.838C302.447 14.614 302.685 14.3107 302.834 13.928H303.996C303.81 14.572 303.45 15.1087 302.918 15.538C302.396 15.958 301.724 16.168 300.902 16.168ZM300.902 9.882C300.342 9.882 299.843 10.0547 299.404 10.4C298.975 10.736 298.728 11.2307 298.662 11.884H303.03C303.002 11.2587 302.788 10.7687 302.386 10.414C301.985 10.0593 301.49 9.882 300.902 9.882ZM308.411 16.168C307.58 16.168 306.89 15.958 306.339 15.538C305.788 15.118 305.466 14.5487 305.373 13.83H306.577C306.652 14.194 306.843 14.5113 307.151 14.782C307.468 15.0433 307.893 15.174 308.425 15.174C308.92 15.174 309.284 15.0713 309.517 14.866C309.75 14.6513 309.867 14.3993 309.867 14.11C309.867 13.69 309.713 13.41 309.405 13.27C309.106 13.13 308.682 13.004 308.131 12.892C307.758 12.8173 307.384 12.71 307.011 12.57C306.638 12.43 306.325 12.234 306.073 11.982C305.821 11.7207 305.695 11.38 305.695 10.96C305.695 10.3533 305.919 9.85867 306.367 9.476C306.824 9.084 307.44 8.888 308.215 8.888C308.952 8.888 309.554 9.07467 310.021 9.448C310.497 9.812 310.772 10.3347 310.847 11.016H309.685C309.638 10.6613 309.484 10.386 309.223 10.19C308.971 9.98467 308.63 9.882 308.201 9.882C307.781 9.882 307.454 9.97067 307.221 10.148C306.997 10.3253 306.885 10.5587 306.885 10.848C306.885 11.128 307.03 11.3473 307.319 11.506C307.618 11.6647 308.019 11.8 308.523 11.912C308.952 12.0053 309.358 12.122 309.741 12.262C310.133 12.3927 310.45 12.5933 310.693 12.864C310.945 13.1253 311.071 13.508 311.071 14.012C311.08 14.6373 310.842 15.1553 310.357 15.566C309.881 15.9673 309.232 16.168 308.411 16.168ZM312.751 16V5.92H313.927V10.246C314.16 9.81667 314.492 9.48533 314.921 9.252C315.35 9.00933 315.817 8.888 316.321 8.888C317.124 8.888 317.768 9.14 318.253 9.644C318.738 10.1387 318.981 10.904 318.981 11.94V16H317.819V12.066C317.819 10.6193 317.236 9.896 316.069 9.896C315.462 9.896 314.954 10.1153 314.543 10.554C314.132 10.9833 313.927 11.5993 313.927 12.402V16H312.751Z" fill="#555555"/>
<defs>
<clipPath id="clip0_28_231">
<rect width="16" height="16" fill="white" transform="translate(0 3)"/>
</clipPath>
</defs>
</svg>
